<?xml version="1.0" standalone="no"?>
<!DOCTYPE svg PUBLIC "-//W3C//DTD SVG 20010904//EN"
 "http://www.w3.org/TR/2001/REC-SVG-20010904/DTD/svg10.dtd">
<svg version="1.0" xmlns="http://www.w3.org/2000/svg"
 width="700.000000pt" height="700.000000pt" viewBox="0 0 700.000000 700.000000"
 preserveAspectRatio="xMidYMid meet">
<metadata>
Created by potrace 1.14, written by Peter Selinger 2001-2017
</metadata>
<g transform="translate(0.000000,700.000000) scale(0.100000,-0.100000)"
fill="#000000" stroke="none">
<path d="M3278 6995 c-1 -1 -42 -5 -89 -9 -47 -4 -96 -9 -109 -11 -12 -2 -48
-7 -79 -11 -57 -6 -76 -9 -121 -19 -39 -8 -71 -15 -125 -25 -139 -28 -460
-127 -580 -180 -223 -98 -393 -187 -540 -281 -55 -35 -104 -67 -110 -72 -5 -4
-49 -36 -96 -70 -149 -108 -275 -217 -422 -367 -321 -328 -559 -683 -735
-1100 -37 -87 -98 -254 -107 -290 -2 -8 -13 -44 -24 -80 -22 -71 -57 -208 -65
-255 -3 -16 -8 -40 -10 -52 -3 -11 -8 -43 -12 -70 -5 -26 -9 -50 -9 -53 -1 -3
-5 -32 -9 -65 -5 -33 -10 -69 -12 -80 -19 -100 -25 -526 -11 -710 5 -54 10
-101 11 -105 2 -3 7 -30 10 -60 37 -318 165 -741 323 -1063 311 -635 811
-1165 1428 -1515 96 -54 261 -134 371 -181 112 -47 366 -135 416 -145 13 -2
30 -7 38 -10 37 -15 286 -64 410 -82 19 -3 49 -7 65 -9 144 -21 536 -27 715
-12 610 52 1194 265 1705 622 51 36 99 71 107 77 7 7 31 26 53 42 22 17 42 32
45 36 3 3 34 30 70 60 85 71 302 287 371 370 30 36 57 67 60 70 12 11 158 209
206 280 138 207 269 464 362 712 41 111 104 310 116 368 2 8 13 58 24 110 33
154 54 289 68 440 15 166 8 564 -12 710 -2 19 -7 58 -11 85 -3 28 -7 52 -9 55
-2 3 -6 28 -9 55 -21 162 -107 465 -193 680 -234 589 -621 1103 -1122 1489
-76 59 -306 216 -316 216 -2 0 -30 16 -61 36 -82 53 -311 164 -454 222 -237
95 -522 175 -745 208 -27 4 -57 9 -65 10 -8 2 -42 6 -76 9 -33 4 -74 9 -90 11
-32 5 -540 14 -546 9z"/>
</g>
</svg>
